# xmcd
#
# Track frame offsets: 
#        150
#        17354
#        45968
#
# Disc length: 994 seconds
#
# Revision: 4
# Processed by: cddbd v1.4PL0 Copyright (c) Steve Scherf et al.
# Submitted via: ExactAudioCopy v0.90a11
#
DISCID=1103e003
DTITLE=St Germain - Sure Thing (Single)
DYEAR=1900
DGENRE=Blues
TTITLE0=Sure Thing (St Germain Radio Edit)
TTITLE1=Rose Rouge (Blaze Early Shelter Mix)
TTITLE2=Sure Thing (St Germain Original Version)
EXTD=ID3G:   0
EXTT0=
EXTT1=
EXTT2=
PLAYORDER=
